<svg xmlns="http://www.w3.org/2000/svg" width="409" height="63" viewBox="0 0 409 63" fill="none"><path d="M0 9.34615C0 4.18441 4.18442 0 9.34615 0H399.654C404.816 0 409 4.18441 409 9.34615V52.9615C409 58.1233 404.816 62.3077 399.654 62.3077H9.34615C4.18441 62.3077 0 58.1233 0 52.9615V9.34615Z" fill="url(#paint0_linear_2713_1965)"></path><path d="M58.6761 29.0923C59.0502 29.2913 59.3631 29.5882 59.5813 29.9514C59.7995 30.3146 59.9148 30.7303 59.9148 31.1539C59.9148 31.5776 59.7995 31.9933 59.5813 32.3565C59.3631 32.7197 59.0502 33.0166 58.6761 33.2155L48.6975 38.6418C47.0908 39.5156 45.1172 38.3785 45.1172 36.5809V25.7277C45.1172 23.9286 47.0908 22.7922 48.6975 23.6653L58.6761 29.0923Z" fill="url(#paint1_linear_2713_1965)" fill-opacity="0.63"></path><path d="M80.6531 40.5771V26.1716H75.0703V23.0064H90.1238V26.1716H84.5411V40.5771H80.6531ZM94.9297 40.8513C93.8331 40.8513 92.8694 40.5855 92.0386 40.0538C91.2079 39.5221 90.5599 38.7661 90.0946 37.7858C89.6294 36.8055 89.3968 35.6258 89.3968 34.2467C89.3968 32.8842 89.6294 31.7128 90.0946 30.7325C90.5599 29.7522 91.2079 29.0045 92.0386 28.4895C92.8694 27.9578 93.8331 27.6919 94.9297 27.6919C95.9432 27.6919 96.8488 27.9411 97.6463 28.4396C98.4605 28.9215 98.9922 29.5778 99.2414 30.4085H98.9672L99.2663 27.9411H102.88C102.83 28.4895 102.78 29.0461 102.731 29.611C102.697 30.1593 102.681 30.6993 102.681 31.231V40.5771H98.9423L98.9174 38.2095H99.2165C98.9506 39.007 98.4189 39.6467 97.6214 40.1285C96.8239 40.6104 95.9266 40.8513 94.9297 40.8513ZM96.0762 38.0101C96.9402 38.0101 97.638 37.7027 98.1697 37.0879C98.7014 36.4731 98.9672 35.5261 98.9672 34.2467C98.9672 32.9673 98.7014 32.0285 98.1697 31.4304C97.638 30.8322 96.9402 30.5331 96.0762 30.5331C95.2122 30.5331 94.5143 30.8322 93.9826 31.4304C93.4509 32.0285 93.1851 32.9673 93.1851 34.2467C93.1851 35.5261 93.4426 36.4731 93.9577 37.0879C94.4894 37.7027 95.1955 38.0101 96.0762 38.0101ZM105.767 40.5771V22.2338H109.531V33.1999H109.58L114.266 27.9411H118.752L112.696 34.6704V33.2996L119.076 40.5771H114.465L109.58 35.0941H109.531V40.5771H105.767ZM126.239 40.8513C124.046 40.8513 122.335 40.2615 121.105 39.0818C119.875 37.9021 119.261 36.2987 119.261 34.2716C119.261 32.959 119.518 31.8125 120.033 30.8322C120.565 29.8519 121.296 29.0876 122.227 28.5393C123.174 27.9744 124.279 27.6919 125.541 27.6919C126.787 27.6919 127.826 27.9578 128.657 28.4895C129.504 29.0211 130.135 29.7688 130.551 30.7325C130.983 31.6796 131.199 32.7845 131.199 34.0473V34.9196H122.351V33.0504H128.457L128.034 33.3993C128.034 32.3525 127.818 31.5633 127.386 31.0316C126.97 30.4833 126.364 30.2091 125.566 30.2091C124.686 30.2091 124.004 30.5331 123.523 31.1811C123.057 31.8291 122.825 32.7596 122.825 33.9725V34.3713C122.825 35.6008 123.124 36.5147 123.722 37.1128C124.337 37.711 125.217 38.0101 126.364 38.0101C127.045 38.0101 127.685 37.927 128.283 37.7608C128.898 37.5781 129.479 37.2956 130.027 36.9135L131.074 39.4058C130.443 39.871 129.712 40.2282 128.881 40.4775C128.067 40.7267 127.186 40.8513 126.239 40.8513ZM138.801 40.5771L146.876 23.0064H150.091L158.266 40.5771H154.328L152.21 35.6922L153.73 36.7639H143.287L144.833 35.6922L142.714 40.5771H138.801ZM148.471 27.0938L145.256 34.7202L144.583 33.7731H152.434L151.861 34.7202L148.571 27.0938H148.471ZM165.491 40.8513C164.146 40.8513 162.966 40.5855 161.952 40.0538C160.939 39.5221 160.158 38.7578 159.61 37.7608C159.061 36.7639 158.787 35.5842 158.787 34.2218C158.787 32.8427 159.061 31.6713 159.61 30.7076C160.174 29.7273 160.955 28.9796 161.952 28.4645C162.966 27.9495 164.146 27.6919 165.491 27.6919C166.339 27.6919 167.161 27.8165 167.959 28.0658C168.773 28.315 169.438 28.6639 169.953 29.1125L168.856 31.7045C168.441 31.3224 167.959 31.0399 167.41 30.8571C166.879 30.6578 166.364 30.5581 165.865 30.5581C164.852 30.5581 164.062 30.8738 163.498 31.5051C162.933 32.1365 162.65 33.0504 162.65 34.2467C162.65 35.443 162.933 36.3568 163.498 36.9882C164.062 37.6196 164.852 37.9353 165.865 37.9353C166.347 37.9353 166.854 37.8439 167.386 37.6611C167.934 37.4784 168.424 37.2042 168.856 36.8387L169.953 39.4058C169.421 39.8544 168.748 40.2116 167.934 40.4775C167.136 40.7267 166.322 40.8513 165.491 40.8513ZM178.071 40.8513C176.426 40.8513 175.188 40.4442 174.357 39.6301C173.526 38.7993 173.111 37.5615 173.111 35.9165V30.7575H170.718V27.9411H173.111V24.8507L176.874 23.9285V27.9411H180.114V30.7575H176.874V35.7171C176.874 36.5147 177.04 37.063 177.373 37.3621C177.705 37.6611 178.129 37.8107 178.644 37.8107C178.959 37.8107 179.217 37.7941 179.416 37.7608C179.632 37.711 179.857 37.6445 180.089 37.5615V40.4775C179.774 40.6104 179.441 40.7018 179.092 40.7516C178.743 40.8181 178.403 40.8513 178.071 40.8513ZM182.045 40.5771V27.9411H185.809V40.5771H182.045ZM181.896 25.8725V22.3584H185.933V25.8725H181.896ZM194.866 40.8513C193.52 40.8513 192.349 40.5855 191.352 40.0538C190.372 39.5055 189.607 38.7411 189.059 37.7608C188.527 36.7805 188.262 35.6091 188.262 34.2467C188.262 32.9008 188.527 31.7378 189.059 30.7575C189.607 29.7771 190.372 29.0211 191.352 28.4895C192.349 27.9578 193.52 27.6919 194.866 27.6919C196.212 27.6919 197.383 27.9578 198.38 28.4895C199.377 29.0211 200.142 29.7771 200.673 30.7575C201.222 31.7378 201.496 32.9008 201.496 34.2467C201.496 35.6091 201.222 36.7805 200.673 37.7608C200.142 38.7411 199.377 39.5055 198.38 40.0538C197.383 40.5855 196.212 40.8513 194.866 40.8513ZM194.866 38.0101C195.73 38.0101 196.411 37.7027 196.91 37.0879C197.425 36.4731 197.682 35.5261 197.682 34.2467C197.682 32.9673 197.425 32.0285 196.91 31.4304C196.411 30.8322 195.73 30.5331 194.866 30.5331C194.002 30.5331 193.313 30.8322 192.798 31.4304C192.299 32.0285 192.05 32.9673 192.05 34.2467C192.05 35.5261 192.299 36.4731 192.798 37.0879C193.313 37.7027 194.002 38.0101 194.866 38.0101ZM203.926 40.5771V31.231C203.926 30.6993 203.909 30.1593 203.876 29.611C203.843 29.0461 203.793 28.4895 203.727 27.9411H207.341L207.615 30.2839H207.316C207.731 29.4531 208.321 28.8135 209.085 28.3648C209.849 27.9162 210.738 27.6919 211.752 27.6919C213.231 27.6919 214.336 28.1239 215.067 28.9879C215.814 29.8353 216.188 31.1562 216.188 32.9507V40.5771H212.425V33.1251C212.425 32.2113 212.259 31.5633 211.926 31.1811C211.594 30.799 211.096 30.6079 210.431 30.6079C209.6 30.6079 208.936 30.8738 208.437 31.4055C207.939 31.9205 207.689 32.6184 207.689 33.499V40.5771H203.926ZM232.85 40.8513C231.437 40.8513 230.116 40.6768 228.887 40.3279C227.657 39.979 226.61 39.4971 225.746 38.8824L226.893 35.8418C227.458 36.2239 228.056 36.5479 228.687 36.8138C229.319 37.0796 229.983 37.2873 230.681 37.4368C231.379 37.5698 232.11 37.6362 232.874 37.6362C234.071 37.6362 234.918 37.4535 235.417 37.0879C235.932 36.7224 236.189 36.2571 236.189 35.6922C236.189 35.1771 236.015 34.7867 235.666 34.5208C235.334 34.2384 234.719 33.9975 233.822 33.7981L230.881 33.1999C229.269 32.8676 228.064 32.3027 227.267 31.5051C226.469 30.7076 226.07 29.6442 226.07 28.315C226.07 27.1851 226.37 26.2048 226.968 25.3741C227.566 24.5433 228.405 23.8953 229.485 23.4301C230.582 22.9648 231.861 22.7322 233.323 22.7322C234.569 22.7322 235.732 22.9067 236.812 23.2556C237.892 23.6045 238.781 24.103 239.479 24.751L238.333 27.5922C237.651 27.0439 236.887 26.6368 236.04 26.371C235.209 26.0885 234.278 25.9473 233.248 25.9473C232.168 25.9473 231.338 26.1384 230.756 26.5205C230.191 26.9027 229.909 27.4261 229.909 28.0907C229.909 28.5891 230.083 28.9962 230.432 29.3119C230.781 29.611 231.396 29.8519 232.276 30.0347L235.167 30.6079C236.812 30.9402 238.034 31.4968 238.831 32.2778C239.629 33.0587 240.027 34.0971 240.027 35.3931C240.027 36.4898 239.728 37.4451 239.13 38.2593C238.549 39.0735 237.718 39.7131 236.638 40.1784C235.574 40.627 234.312 40.8513 232.85 40.8513ZM249.005 40.8513C246.812 40.8513 245.1 40.2615 243.871 39.0818C242.641 37.9021 242.026 36.2987 242.026 34.2716C242.026 32.959 242.284 31.8125 242.799 30.8322C243.331 29.8519 244.062 29.0876 244.992 28.5393C245.939 27.9744 247.044 27.6919 248.307 27.6919C249.553 27.6919 250.592 27.9578 251.422 28.4895C252.27 29.0211 252.901 29.7688 253.316 30.7325C253.748 31.6796 253.964 32.7845 253.964 34.0473V34.9196H245.117V33.0504H251.223L250.799 33.3993C250.799 32.3525 250.583 31.5633 250.151 31.0316C249.736 30.4833 249.129 30.2091 248.332 30.2091C247.451 30.2091 246.77 30.5331 246.288 31.1811C245.823 31.8291 245.59 32.7596 245.59 33.9725V34.3713C245.59 35.6008 245.889 36.5147 246.488 37.1128C247.102 37.711 247.983 38.0101 249.129 38.0101C249.811 38.0101 250.45 37.927 251.048 37.7608C251.663 37.5781 252.245 37.2956 252.793 36.9135L253.84 39.4058C253.208 39.871 252.477 40.2282 251.647 40.4775C250.832 40.7267 249.952 40.8513 249.005 40.8513ZM256.352 40.5771V22.2338H260.116V33.1999H260.165L264.851 27.9411H269.337L263.281 34.6704V33.2996L269.661 40.5771H265.05L260.165 35.0941H260.116V40.5771H256.352ZM275.452 40.8513C274.355 40.8513 273.391 40.5855 272.561 40.0538C271.73 39.5221 271.082 38.7661 270.617 37.7858C270.151 36.8055 269.919 35.6258 269.919 34.2467C269.919 32.8842 270.151 31.7128 270.617 30.7325C271.082 29.7522 271.73 29.0045 272.561 28.4895C273.391 27.9578 274.355 27.6919 275.452 27.6919C276.465 27.6919 277.371 27.9411 278.168 28.4396C278.982 28.9215 279.514 29.5778 279.763 30.4085H279.489L279.788 27.9411H283.402C283.352 28.4895 283.302 29.0461 283.253 29.611C283.219 30.1593 283.203 30.6993 283.203 31.231V40.5771H279.464L279.439 38.2095H279.738C279.473 39.007 278.941 39.6467 278.143 40.1285C277.346 40.6104 276.449 40.8513 275.452 40.8513ZM276.598 38.0101C277.462 38.0101 278.16 37.7027 278.692 37.0879C279.223 36.4731 279.489 35.5261 279.489 34.2467C279.489 32.9673 279.223 32.0285 278.692 31.4304C278.16 30.8322 277.462 30.5331 276.598 30.5331C275.734 30.5331 275.036 30.8322 274.505 31.4304C273.973 32.0285 273.707 32.9673 273.707 34.2467C273.707 35.5261 273.965 36.4731 274.48 37.0879C275.011 37.7027 275.717 38.0101 276.598 38.0101ZM286.264 40.5771V31.2808C286.264 30.7325 286.248 30.1759 286.214 29.611C286.198 29.0461 286.156 28.4895 286.09 27.9411H289.704L290.127 31.6298H289.554C289.72 30.7325 289.986 29.9931 290.352 29.4116C290.734 28.8301 291.199 28.3981 291.747 28.1156C292.312 27.8331 292.952 27.6919 293.666 27.6919C293.982 27.6919 294.231 27.7085 294.414 27.7418C294.597 27.7584 294.78 27.7999 294.962 27.8664L294.937 31.1811C294.588 31.0316 294.289 30.9402 294.04 30.907C293.808 30.8571 293.508 30.8322 293.143 30.8322C292.445 30.8322 291.864 30.9651 291.398 31.231C290.95 31.4968 290.609 31.8873 290.376 32.4024C290.16 32.9175 290.052 33.5405 290.052 34.2716V40.5771H286.264ZM301.324 40.8513C300.227 40.8513 299.264 40.5855 298.433 40.0538C297.602 39.5221 296.954 38.7661 296.489 37.7858C296.024 36.8055 295.791 35.6258 295.791 34.2467C295.791 32.8842 296.024 31.7128 296.489 30.7325C296.954 29.7522 297.602 29.0045 298.433 28.4895C299.264 27.9578 300.227 27.6919 301.324 27.6919C302.337 27.6919 303.243 27.9411 304.041 28.4396C304.855 28.9215 305.386 29.5778 305.636 30.4085H305.361L305.661 27.9411H309.274C309.225 28.4895 309.175 29.0461 309.125 29.611C309.092 30.1593 309.075 30.6993 309.075 31.231V40.5771H305.337L305.312 38.2095H305.611C305.345 39.007 304.813 39.6467 304.016 40.1285C303.218 40.6104 302.321 40.8513 301.324 40.8513ZM302.47 38.0101C303.334 38.0101 304.032 37.7027 304.564 37.0879C305.096 36.4731 305.361 35.5261 305.361 34.2467C305.361 32.9673 305.096 32.0285 304.564 31.4304C304.032 30.8322 303.334 30.5331 302.47 30.5331C301.606 30.5331 300.909 30.8322 300.377 31.4304C299.845 32.0285 299.579 32.9673 299.579 34.2467C299.579 35.5261 299.837 36.4731 300.352 37.0879C300.884 37.7027 301.59 38.0101 302.47 38.0101ZM312.161 40.5771V31.231C312.161 30.6993 312.145 30.1593 312.112 29.611C312.078 29.0461 312.028 28.4895 311.962 27.9411H315.576L315.85 30.2839H315.551C315.966 29.4531 316.556 28.8135 317.32 28.3648C318.085 27.9162 318.974 27.6919 319.987 27.6919C321.466 27.6919 322.571 28.1239 323.302 28.9879C324.05 29.8353 324.424 31.1562 324.424 32.9507V40.5771H320.66V33.1251C320.66 32.2113 320.494 31.5633 320.162 31.1811C319.829 30.799 319.331 30.6079 318.666 30.6079C317.836 30.6079 317.171 30.8738 316.672 31.4055C316.174 31.9205 315.925 32.6184 315.925 33.499V40.5771H312.161ZM333.453 46.1599C332.24 46.1599 331.16 46.0353 330.213 45.7861C329.266 45.5535 328.418 45.1962 327.671 44.7144L328.393 42.0227C328.859 42.3218 329.349 42.5627 329.864 42.7455C330.395 42.9448 330.935 43.0861 331.484 43.1691C332.049 43.2688 332.605 43.3187 333.154 43.3187C334.267 43.3187 335.098 43.0528 335.646 42.5211C336.194 41.9895 336.468 41.2335 336.468 40.2531V37.6362H336.718C336.452 38.4338 335.92 39.0735 335.123 39.5553C334.325 40.0371 333.428 40.2781 332.431 40.2781C331.301 40.2781 330.312 40.0205 329.465 39.5055C328.634 38.9904 327.986 38.2593 327.521 37.3122C327.056 36.3651 326.823 35.2519 326.823 33.9725C326.823 32.6931 327.056 31.5799 327.521 30.6328C327.986 29.6858 328.634 28.963 329.465 28.4645C330.312 27.9495 331.301 27.6919 332.431 27.6919C333.444 27.6919 334.333 27.9328 335.098 28.4147C335.879 28.8799 336.402 29.503 336.668 30.2839L336.468 30.1842L336.718 27.9411H340.356C340.29 28.4895 340.24 29.0461 340.207 29.611C340.174 30.1593 340.157 30.6993 340.157 31.231V39.8295C340.157 41.8731 339.584 43.435 338.437 44.515C337.291 45.6116 335.629 46.1599 333.453 46.1599ZM333.552 37.4368C334.433 37.4368 335.131 37.1378 335.646 36.5396C336.161 35.9415 336.419 35.0858 336.419 33.9725C336.419 32.8593 336.161 32.0119 335.646 31.4304C335.131 30.8322 334.433 30.5331 333.552 30.5331C332.639 30.5331 331.916 30.8322 331.384 31.4304C330.869 32.0119 330.611 32.8593 330.611 33.9725C330.611 35.0858 330.869 35.9415 331.384 36.5396C331.916 37.1378 332.639 37.4368 333.552 37.4368Z" fill="white"></path><path d="M355.34 33.2153C354.965 33.0164 354.653 32.7194 354.434 32.3562C354.216 31.9931 354.101 31.5774 354.101 31.1537C354.101 30.73 354.216 30.3143 354.434 29.9511C354.653 29.588 354.965 29.291 355.34 29.0921L365.318 23.6659C366.925 22.792 368.898 23.9291 368.898 25.7267L368.898 36.5799C368.898 38.379 366.925 39.5154 365.318 38.6423L355.34 33.2153Z" fill="url(#paint2_linear_2713_1965)" fill-opacity="0.63"></path><defs><linearGradient id="paint0_linear_2713_1965" x1="4.70111" y1="31.1538" x2="408.996" y2="31.1538" gradientUnits="userSpaceOnUse"><stop stop-color="#BE48FB"></stop><stop offset="0.505208" stop-color="#CE6FFF"></stop><stop offset="1" stop-color="#BE48FB"></stop></linearGradient><linearGradient id="paint1_linear_2713_1965" x1="59.9285" y1="30.953" x2="43.6912" y2="30.953" gradientUnits="userSpaceOnUse"><stop stop-color="white"></stop><stop offset="1" stop-color="white" stop-opacity="0"></stop></linearGradient><linearGradient id="paint2_linear_2713_1965" x1="354.087" y1="31.3546" x2="370.324" y2="31.3546" gradientUnits="userSpaceOnUse"><stop stop-color="white"></stop><stop offset="1" stop-color="white" stop-opacity="0"></stop></linearGradient></defs></svg>