<svg xmlns="http://www.w3.org/2000/svg" width="336" height="50" viewBox="0 0 336 50" fill="none"><rect width="336" height="49.2542" rx="12.1271" fill="url(#paint0_linear_3845_6661)"></rect><path d="M42.2758 32.1272L36.0288 18.2341H39.3395L44.0888 29.3486H43.1232L47.8724 18.2341H51.0649L44.8179 32.1272H42.2758ZM49.3475 32.1272L55.7324 18.2341H58.2746L64.7383 32.1272H61.6247L59.9496 28.2647L61.1517 29.1121H52.8947L54.1165 28.2647L52.4414 32.1272H49.3475ZM56.9937 21.4659L54.4515 27.4962L53.9194 26.7473H60.127L59.6737 27.4962L57.0725 21.4659H56.9937ZM65.9363 32.1272V18.2341H69.0105V29.5456H75.2772V32.1272H65.9363ZM82.5497 32.344C80.5133 32.344 78.9959 31.8382 77.9975 30.8266C76.999 29.815 76.4998 28.3107 76.4998 26.3138V18.2341H79.574V26.3335C79.574 27.4502 79.8105 28.2976 80.2834 28.8756C80.7695 29.4537 81.5249 29.7427 82.5497 29.7427C83.5481 29.7427 84.2904 29.4537 84.7765 28.8756C85.2757 28.2976 85.5254 27.4502 85.5254 26.3335V18.2341H88.5602V26.3138C88.5602 28.3107 88.0544 29.815 87.0428 30.8266C86.0443 31.8382 84.5466 32.344 82.5497 32.344ZM91.2815 32.1272V18.2341H100.938V20.6186H94.2178V23.8701H100.465V26.2743H94.2178V29.7427H100.938V32.1272H91.2815ZM109.212 32.1272V29.6048H112.365V20.7959H113.803L109.547 23.279V20.4018L113.252 18.2341H115.439V29.6048H118.395V32.1272H109.212ZM121.028 32.1272V29.6048H124.181V20.7959H125.62L121.363 23.279V20.4018L125.068 18.2341H127.255V29.6048H130.211V32.1272H121.028ZM131.819 32.1272V28.9741H135.012V32.1272H131.819ZM142.397 32.344C140.611 32.344 139.231 31.7331 138.259 30.5113C137.287 29.2895 136.801 27.575 136.801 25.3678C136.801 23.8176 137.05 22.4973 137.549 21.4068C138.049 20.3033 138.758 19.4624 139.678 18.8844C140.611 18.3063 141.727 18.0173 143.028 18.0173C143.777 18.0173 144.519 18.1487 145.255 18.4114C146.004 18.661 146.654 19.0289 147.206 19.515L146.22 21.7813C145.734 21.374 145.215 21.0718 144.664 20.8748C144.112 20.6645 143.553 20.5594 142.988 20.5594C141.911 20.5594 141.09 20.9142 140.525 21.6236C139.96 22.333 139.678 23.3906 139.678 24.7964V26.0773H139.422C139.527 25.4467 139.743 24.9146 140.072 24.4811C140.4 24.0344 140.821 23.6928 141.333 23.4563C141.845 23.2198 142.41 23.1016 143.028 23.1016C143.816 23.1016 144.519 23.2987 145.136 23.6928C145.767 24.0738 146.26 24.6059 146.614 25.289C146.969 25.959 147.147 26.7276 147.147 27.5947C147.147 28.5143 146.943 29.3354 146.536 30.058C146.128 30.7674 145.57 31.3258 144.861 31.7331C144.164 32.1403 143.343 32.344 142.397 32.344ZM142.24 29.9595C142.66 29.9595 143.028 29.8675 143.343 29.6836C143.658 29.4997 143.902 29.2369 144.072 28.8953C144.243 28.5537 144.329 28.1596 144.329 27.7129C144.329 27.2662 144.243 26.8787 144.072 26.5502C143.902 26.2087 143.658 25.9459 143.343 25.762C143.028 25.5649 142.66 25.4664 142.24 25.4664C141.819 25.4664 141.451 25.5649 141.136 25.762C140.821 25.9459 140.571 26.2087 140.387 26.5502C140.216 26.8787 140.131 27.2662 140.131 27.7129C140.131 28.1596 140.216 28.5537 140.387 28.8953C140.571 29.2369 140.821 29.4997 141.136 29.6836C141.451 29.8675 141.819 29.9595 142.24 29.9595ZM149.681 35.8123C149.445 35.8123 149.162 35.7992 148.834 35.7729C148.505 35.7466 148.17 35.7007 147.829 35.635V33.2308C148.091 33.2833 148.341 33.3227 148.577 33.349C148.814 33.3753 149.004 33.3884 149.149 33.3884C149.753 33.3884 150.18 33.2176 150.43 32.876C150.679 32.5345 150.804 31.9827 150.804 31.2207V18.2341H153.878V31.2207C153.878 32.2454 153.734 33.0994 153.445 33.7825C153.169 34.4657 152.722 34.9715 152.105 35.3C151.501 35.6415 150.693 35.8123 149.681 35.8123ZM159.926 32.1272V20.7368H155.511V18.2341H167.414V20.7368H163V32.1272H159.926ZM172.536 31.3586V27.4962H168.753V25.4467H172.536V21.7024H174.645V25.4467H178.409V27.4962H174.645V31.3586H172.536ZM186.466 32.1272V18.2341H192.949C194.513 18.2341 195.695 18.6151 196.496 19.3771C197.311 20.1259 197.718 21.1572 197.718 22.471C197.718 23.7716 197.311 24.8095 196.496 25.5846C195.695 26.3466 194.513 26.7276 192.949 26.7276H189.54V32.1272H186.466ZM189.54 24.3431H192.555C193.291 24.3431 193.836 24.1789 194.191 23.8504C194.559 23.522 194.743 23.0622 194.743 22.471C194.743 21.8798 194.559 21.4265 194.191 21.1112C193.836 20.7828 193.291 20.6186 192.555 20.6186H189.54V24.3431ZM199.764 32.1272V18.2341H209.42V20.6186H202.7V23.8701H208.947V26.2743H202.7V29.7427H209.42V32.1272H199.764ZM211.561 32.1272V18.2341H217.867C219.43 18.2341 220.639 18.6085 221.493 19.3573C222.347 20.0931 222.774 21.1244 222.774 22.4513C222.774 23.3184 222.577 24.0672 222.183 24.6978C221.802 25.3153 221.25 25.7948 220.527 26.1364C219.818 26.4648 218.964 26.6291 217.965 26.6291L218.202 26.1955H219.01C219.575 26.1955 220.074 26.3466 220.508 26.6488C220.954 26.9509 221.322 27.3911 221.611 27.9691L223.68 32.1272H220.291L218.143 27.6538C217.985 27.2728 217.736 27.0232 217.394 26.905C217.066 26.7736 216.685 26.7079 216.251 26.7079H214.635V32.1272H211.561ZM214.635 24.5008H217.335C218.136 24.5008 218.747 24.3365 219.168 24.0081C219.588 23.6797 219.798 23.1936 219.798 22.5498C219.798 21.9061 219.588 21.4265 219.168 21.1112C218.747 20.7828 218.136 20.6186 217.335 20.6186H214.635V24.5008ZM234.287 32.1272V20.7368H229.873V18.2341H241.776V20.7368H237.361V32.1272H234.287ZM240.255 32.1272L246.64 18.2341H249.182L255.646 32.1272H252.532L250.857 28.2647L252.059 29.1121H243.802L245.024 28.2647L243.349 32.1272H240.255ZM247.901 21.4659L245.359 27.4962L244.827 26.7473H251.034L250.581 27.4962L247.98 21.4659H247.901ZM256.844 32.1272V18.2341H259.918V23.811H266.283V18.2341H269.377V32.1272H266.283V26.3532H259.918V32.1272H256.844ZM278.172 32.344C276.136 32.344 274.618 31.8382 273.62 30.8266C272.621 29.815 272.122 28.3107 272.122 26.3138V18.2341H275.196V26.3335C275.196 27.4502 275.433 28.2976 275.906 28.8756C276.392 29.4537 277.147 29.7427 278.172 29.7427C279.17 29.7427 279.913 29.4537 280.399 28.8756C280.898 28.2976 281.148 27.4502 281.148 26.3335V18.2341H284.182V26.3138C284.182 28.3107 283.677 29.815 282.665 30.8266C281.667 31.8382 280.169 32.344 278.172 32.344ZM286.904 32.1272V18.2341H289.19L296.737 27.8312H296.205V18.2341H299.063V32.1272H296.777L289.249 22.5301H289.761V32.1272H286.904Z" fill="white"></path><defs><linearGradient id="paint0_linear_3845_6661" x1="168" y1="0" x2="168" y2="49.2542" gradientUnits="userSpaceOnUse"><stop stop-color="#197D00"></stop><stop offset="1" stop-color="#2EA70F"></stop></linearGradient></defs></svg>