<svg xmlns="http://www.w3.org/2000/svg" width="156" height="40" viewBox="0 0 156 40" fill="none"><path d="M0 6C0 2.68629 2.68629 0 6 0H150C153.314 0 156 2.68629 156 6V34C156 37.3137 153.314 40 150 40H6C2.6863 40 0 37.3137 0 34V6Z" fill="url(#paint0_linear_2590_64453)"></path><path d="M121.705 18.6767C121.945 18.8044 122.146 18.995 122.286 19.2281C122.426 19.4613 122.5 19.7282 122.5 20.0002C122.5 20.2721 122.426 20.539 122.286 20.7722C122.146 21.0053 121.945 21.1959 121.705 21.3237L115.299 24.8072C114.267 25.3682 113 24.6382 113 23.4842V16.5167C113 15.3617 114.267 14.6322 115.299 15.1927L121.705 18.6767Z" fill="white" fill-opacity="0.63"></path><path d="M33.8641 28.992C33.6721 28.992 33.4428 28.9813 33.1761 28.96C32.9095 28.9387 32.6375 28.9013 32.3601 28.848V26.896C32.5735 26.9387 32.7761 26.9707 32.9681 26.992C33.1601 27.0133 33.3148 27.024 33.4321 27.024C33.9228 27.024 34.2695 26.8853 34.4721 26.608C34.6748 26.3307 34.7761 25.8827 34.7761 25.264V14.72H37.2721V25.264C37.2721 26.096 37.1548 26.7893 36.9201 27.344C36.6961 27.8987 36.3335 28.3093 35.8321 28.576C35.3415 28.8533 34.6855 28.992 33.8641 28.992ZM43.2539 26.176C42.3899 26.176 41.6379 26.0053 40.9979 25.664C40.3685 25.312 39.8779 24.8213 39.5259 24.192C39.1845 23.5627 39.0139 22.8107 39.0139 21.936C39.0139 21.072 39.1845 20.3253 39.5259 19.696C39.8779 19.0667 40.3685 18.5813 40.9979 18.24C41.6379 17.8987 42.3899 17.728 43.2539 17.728C44.1179 17.728 44.8699 17.8987 45.5099 18.24C46.1499 18.5813 46.6405 19.0667 46.9819 19.696C47.3339 20.3253 47.5099 21.072 47.5099 21.936C47.5099 22.8107 47.3339 23.5627 46.9819 24.192C46.6405 24.8213 46.1499 25.312 45.5099 25.664C44.8699 26.0053 44.1179 26.176 43.2539 26.176ZM43.2539 24.352C43.8085 24.352 44.2459 24.1547 44.5659 23.76C44.8965 23.3653 45.0619 22.7573 45.0619 21.936C45.0619 21.1147 44.8965 20.512 44.5659 20.128C44.2459 19.744 43.8085 19.552 43.2539 19.552C42.6992 19.552 42.2565 19.744 41.9259 20.128C41.6059 20.512 41.4459 21.1147 41.4459 21.936C41.4459 22.7573 41.6059 23.3653 41.9259 23.76C42.2565 24.1547 42.6992 24.352 43.2539 24.352ZM49.0701 26V17.888H51.4861V26H49.0701ZM48.9741 16.56V14.304H51.5661V16.56H48.9741ZM53.4608 26V20C53.4608 19.6587 53.4501 19.312 53.4288 18.96C53.4074 18.5973 53.3754 18.24 53.3328 17.888H55.6528L55.8288 19.392H55.6368C55.9034 18.8587 56.2821 18.448 56.7728 18.16C57.2634 17.872 57.8341 17.728 58.4848 17.728C59.4341 17.728 60.1434 18.0053 60.6128 18.56C61.0928 19.104 61.3328 19.952 61.3328 21.104V26H58.9168V21.216C58.9168 20.6293 58.8101 20.2133 58.5968 19.968C58.3834 19.7227 58.0634 19.6 57.6368 19.6C57.1034 19.6 56.6768 19.7707 56.3568 20.112C56.0368 20.4427 55.8768 20.8907 55.8768 21.456V26H53.4608ZM67.9489 26V14.72H69.8049L75.9329 22.512H75.5009V14.72H77.8209V26H75.9649L69.8529 18.208H70.2689V26H67.9489ZM83.7851 26.176C82.9211 26.176 82.1691 26.0053 81.5291 25.664C80.8998 25.312 80.4091 24.8213 80.0571 24.192C79.7158 23.5627 79.5451 22.8107 79.5451 21.936C79.5451 21.072 79.7158 20.3253 80.0571 19.696C80.4091 19.0667 80.8998 18.5813 81.5291 18.24C82.1691 17.8987 82.9211 17.728 83.7851 17.728C84.6491 17.728 85.4011 17.8987 86.0411 18.24C86.6811 18.5813 87.1718 19.0667 87.5131 19.696C87.8651 20.3253 88.0411 21.072 88.0411 21.936C88.0411 22.8107 87.8651 23.5627 87.5131 24.192C87.1718 24.8213 86.6811 25.312 86.0411 25.664C85.4011 26.0053 84.6491 26.176 83.7851 26.176ZM83.7851 24.352C84.3398 24.352 84.7771 24.1547 85.0971 23.76C85.4278 23.3653 85.5931 22.7573 85.5931 21.936C85.5931 21.1147 85.4278 20.512 85.0971 20.128C84.7771 19.744 84.3398 19.552 83.7851 19.552C83.2305 19.552 82.7878 19.744 82.4571 20.128C82.1371 20.512 81.9771 21.1147 81.9771 21.936C81.9771 22.7573 82.1371 23.3653 82.4571 23.76C82.7878 24.1547 83.2305 24.352 83.7851 24.352ZM91.7019 26L88.4379 17.888H90.9179L93.0619 23.728H92.6459L94.8059 17.888H96.4059L98.5499 23.728H98.2139L100.326 17.888H102.662L99.4139 26H97.3339L95.0299 20.016H96.0059L93.7819 26H91.7019Z" fill="white"></path><defs><linearGradient id="paint0_linear_2590_64453" x1="1.79309" y1="20" x2="155.999" y2="20" gradientUnits="userSpaceOnUse"><stop stop-color="#BE48FB"></stop><stop offset="0.505208" stop-color="#CE6FFF"></stop><stop offset="1" stop-color="#BE48FB"></stop></linearGradient></defs></svg>