<svg xmlns="http://www.w3.org/2000/svg" width="332" height="63" viewBox="0 0 332 63" fill="none"><path d="M0 9.34615C0 4.18441 4.18441 0 9.34615 0H322.654C327.816 0 332 4.18441 332 9.34615V52.9615C332 58.1233 327.816 62.3077 322.654 62.3077H9.34616C4.18443 62.3077 0 58.1233 0 52.9615V9.34615Z" fill="url(#paint0_linear_62_3)"></path><path d="M67.5589 29.7271C67.933 29.926 68.2459 30.223 68.4641 30.5862C68.6823 30.9493 68.7976 31.365 68.7976 31.7887C68.7976 32.2124 68.6823 32.6281 68.4641 32.9912C68.2459 33.3544 67.933 33.6514 67.5589 33.8503L57.5804 39.2765C55.9736 40.1504 54 39.0133 54 37.2157V26.3625C54 24.5633 55.9736 23.427 57.5804 24.3001L67.5589 29.7271Z" fill="url(#paint1_linear_62_3)" fill-opacity="0.63"></path><path d="M85.5803 39.22C83.9669 39.22 82.6069 38.9267 81.5003 38.34C80.4069 37.74 79.5803 36.9 79.0203 35.82C78.4603 34.7267 78.1803 33.4533 78.1803 32C78.1803 30.5067 78.4803 29.2133 79.0803 28.12C79.6936 27.0267 80.5736 26.18 81.7203 25.58C82.8669 24.98 84.2403 24.68 85.8403 24.68C86.8669 24.68 87.7669 24.8133 88.5403 25.08C89.3269 25.3333 90.0136 25.7 90.6003 26.18L89.6003 28.6C89.1736 28.2933 88.7736 28.0533 88.4003 27.88C88.0269 27.6933 87.6403 27.5667 87.2403 27.5C86.8403 27.42 86.3803 27.38 85.8603 27.38C84.3936 27.38 83.2869 27.78 82.5403 28.58C81.8069 29.3667 81.4403 30.5133 81.4403 32.02C81.4403 33.5133 81.7869 34.6467 82.4803 35.42C83.1736 36.1933 84.2603 36.58 85.7403 36.58C86.2336 36.58 86.7403 36.5333 87.2603 36.44C87.7803 36.3467 88.2936 36.2067 88.8003 36.02L88.2403 37.22V33.42H85.1403V31.2H90.8203V38.12C90.1136 38.4667 89.2936 38.74 88.3603 38.94C87.4403 39.1267 86.5136 39.22 85.5803 39.22ZM97.2426 39.22C96.3626 39.22 95.5893 39.0067 94.9226 38.58C94.256 38.1533 93.736 37.5467 93.3626 36.76C92.9893 35.9733 92.8026 35.0267 92.8026 33.92C92.8026 32.8267 92.9893 31.8867 93.3626 31.1C93.736 30.3133 94.256 29.7133 94.9226 29.3C95.5893 28.8733 96.3626 28.66 97.2426 28.66C98.056 28.66 98.7826 28.86 99.4226 29.26C100.076 29.6467 100.503 30.1733 100.703 30.84H100.483L100.723 28.86H103.623C103.583 29.3 103.543 29.7467 103.503 30.2C103.476 30.64 103.463 31.0733 103.463 31.5V39H100.463L100.443 37.1H100.683C100.469 37.74 100.043 38.2533 99.4026 38.64C98.7626 39.0267 98.0426 39.22 97.2426 39.22ZM98.1626 36.94C98.856 36.94 99.416 36.6933 99.8426 36.2C100.269 35.7067 100.483 34.9467 100.483 33.92C100.483 32.8933 100.269 32.14 99.8426 31.66C99.416 31.18 98.856 30.94 98.1626 30.94C97.4693 30.94 96.9093 31.18 96.4826 31.66C96.056 32.14 95.8426 32.8933 95.8426 33.92C95.8426 34.9467 96.0493 35.7067 96.4626 36.2C96.8893 36.6933 97.456 36.94 98.1626 36.94ZM112.139 39.22C111.326 39.22 110.599 39.02 109.959 38.62C109.333 38.22 108.913 37.6867 108.699 37.02H108.919V39H105.939V24.28H108.959V30.76H108.699C108.926 30.12 109.353 29.6133 109.979 29.24C110.619 28.8533 111.339 28.66 112.139 28.66C113.033 28.66 113.813 28.8733 114.479 29.3C115.146 29.7267 115.666 30.3333 116.039 31.12C116.426 31.9067 116.619 32.8533 116.619 33.96C116.619 35.0533 116.426 35.9933 116.039 36.78C115.666 37.5667 115.139 38.1733 114.459 38.6C113.793 39.0133 113.019 39.22 112.139 39.22ZM111.239 36.94C111.919 36.94 112.479 36.7 112.919 36.22C113.359 35.74 113.579 34.9867 113.579 33.96C113.579 32.9333 113.359 32.1733 112.919 31.68C112.479 31.1867 111.919 30.94 111.239 30.94C110.546 30.94 109.979 31.18 109.539 31.66C109.113 32.14 108.899 32.8933 108.899 33.92C108.899 34.9467 109.113 35.7067 109.539 36.2C109.979 36.6933 110.546 36.94 111.239 36.94ZM122.256 39.22C120.989 39.22 120.049 38.8733 119.436 38.18C118.823 37.4733 118.516 36.4067 118.516 34.98V28.86H121.536V34.98C121.536 35.62 121.663 36.0933 121.916 36.4C122.183 36.7067 122.589 36.86 123.136 36.86C123.736 36.86 124.229 36.6533 124.616 36.24C125.016 35.8133 125.216 35.2467 125.216 34.54V28.86H128.236V39H125.296V37.06H125.576C125.269 37.74 124.829 38.2733 124.256 38.66C123.696 39.0333 123.029 39.22 122.256 39.22ZM130.724 39V31.5C130.724 31.0733 130.711 30.64 130.684 30.2C130.658 29.7467 130.618 29.3 130.564 28.86H133.464L133.684 30.74H133.444C133.778 30.0733 134.251 29.56 134.864 29.2C135.478 28.84 136.191 28.66 137.004 28.66C138.191 28.66 139.078 29.0067 139.664 29.7C140.264 30.38 140.564 31.44 140.564 32.88V39H137.544V33.02C137.544 32.2867 137.411 31.7667 137.144 31.46C136.878 31.1533 136.478 31 135.944 31C135.278 31 134.744 31.2133 134.344 31.64C133.944 32.0533 133.744 32.6133 133.744 33.32V39H130.724ZM147.81 43.48C146.837 43.48 145.97 43.38 145.21 43.18C144.45 42.9933 143.77 42.7067 143.17 42.32L143.75 40.16C144.123 40.4 144.517 40.5933 144.93 40.74C145.357 40.9 145.79 41.0133 146.23 41.08C146.683 41.16 147.13 41.2 147.57 41.2C148.463 41.2 149.13 40.9867 149.57 40.56C150.01 40.1333 150.23 39.5267 150.23 38.74V36.64H150.43C150.217 37.28 149.79 37.7933 149.15 38.18C148.51 38.5667 147.79 38.76 146.99 38.76C146.083 38.76 145.29 38.5533 144.61 38.14C143.943 37.7267 143.423 37.14 143.05 36.38C142.677 35.62 142.49 34.7267 142.49 33.7C142.49 32.6733 142.677 31.78 143.05 31.02C143.423 30.26 143.943 29.68 144.61 29.28C145.29 28.8667 146.083 28.66 146.99 28.66C147.803 28.66 148.517 28.8533 149.13 29.24C149.757 29.6133 150.177 30.1133 150.39 30.74L150.23 30.66L150.43 28.86H153.35C153.297 29.3 153.257 29.7467 153.23 30.2C153.203 30.64 153.19 31.0733 153.19 31.5V38.4C153.19 40.04 152.73 41.2933 151.81 42.16C150.89 43.04 149.557 43.48 147.81 43.48ZM147.89 36.48C148.597 36.48 149.157 36.24 149.57 35.76C149.983 35.28 150.19 34.5933 150.19 33.7C150.19 32.8067 149.983 32.1267 149.57 31.66C149.157 31.18 148.597 30.94 147.89 30.94C147.157 30.94 146.577 31.18 146.15 31.66C145.737 32.1267 145.53 32.8067 145.53 33.7C145.53 34.5933 145.737 35.28 146.15 35.76C146.577 36.24 147.157 36.48 147.89 36.48ZM166.591 39.22C165.458 39.22 164.398 39.08 163.411 38.8C162.424 38.52 161.584 38.1333 160.891 37.64L161.811 35.2C162.264 35.5067 162.744 35.7667 163.251 35.98C163.758 36.1933 164.291 36.36 164.851 36.48C165.411 36.5867 165.998 36.64 166.611 36.64C167.571 36.64 168.251 36.4933 168.651 36.2C169.064 35.9067 169.271 35.5333 169.271 35.08C169.271 34.6667 169.131 34.3533 168.851 34.14C168.584 33.9133 168.091 33.72 167.371 33.56L165.011 33.08C163.718 32.8133 162.751 32.36 162.111 31.72C161.471 31.08 161.151 30.2267 161.151 29.16C161.151 28.2533 161.391 27.4667 161.871 26.8C162.351 26.1333 163.024 25.6133 163.891 25.24C164.771 24.8667 165.798 24.68 166.971 24.68C167.971 24.68 168.904 24.82 169.771 25.1C170.638 25.38 171.351 25.78 171.911 26.3L170.991 28.58C170.444 28.14 169.831 27.8133 169.151 27.6C168.484 27.3733 167.738 27.26 166.911 27.26C166.044 27.26 165.378 27.4133 164.911 27.72C164.458 28.0267 164.231 28.4467 164.231 28.98C164.231 29.38 164.371 29.7067 164.651 29.96C164.931 30.2 165.424 30.3933 166.131 30.54L168.451 31C169.771 31.2667 170.751 31.7133 171.391 32.34C172.031 32.9667 172.351 33.8 172.351 34.84C172.351 35.72 172.111 36.4867 171.631 37.14C171.164 37.7933 170.498 38.3067 169.631 38.68C168.778 39.04 167.764 39.22 166.591 39.22ZM179.555 39.22C177.795 39.22 176.422 38.7467 175.435 37.8C174.448 36.8533 173.955 35.5667 173.955 33.94C173.955 32.8867 174.162 31.9667 174.575 31.18C175.002 30.3933 175.588 29.78 176.335 29.34C177.095 28.8867 177.982 28.66 178.995 28.66C179.995 28.66 180.828 28.8733 181.495 29.3C182.175 29.7267 182.682 30.3267 183.015 31.1C183.362 31.86 183.535 32.7467 183.535 33.76V34.46H176.435V32.96H181.335L180.995 33.24C180.995 32.4 180.822 31.7667 180.475 31.34C180.142 30.9 179.655 30.68 179.015 30.68C178.308 30.68 177.762 30.94 177.375 31.46C177.002 31.98 176.815 32.7267 176.815 33.7V34.02C176.815 35.0067 177.055 35.74 177.535 36.22C178.028 36.7 178.735 36.94 179.655 36.94C180.202 36.94 180.715 36.8733 181.195 36.74C181.688 36.5933 182.155 36.3667 182.595 36.06L183.435 38.06C182.928 38.4333 182.342 38.72 181.675 38.92C181.022 39.12 180.315 39.22 179.555 39.22ZM185.451 39V24.28H188.471V33.08H188.511L192.271 28.86H195.871L191.011 34.26V33.16L196.131 39H192.431L188.511 34.6H188.471V39H185.451ZM200.778 39.22C199.898 39.22 199.124 39.0067 198.458 38.58C197.791 38.1533 197.271 37.5467 196.898 36.76C196.524 35.9733 196.338 35.0267 196.338 33.92C196.338 32.8267 196.524 31.8867 196.898 31.1C197.271 30.3133 197.791 29.7133 198.458 29.3C199.124 28.8733 199.898 28.66 200.778 28.66C201.591 28.66 202.318 28.86 202.958 29.26C203.611 29.6467 204.038 30.1733 204.238 30.84H204.018L204.258 28.86H207.158C207.118 29.3 207.078 29.7467 207.038 30.2C207.011 30.64 206.998 31.0733 206.998 31.5V39H203.998L203.978 37.1H204.218C204.004 37.74 203.578 38.2533 202.938 38.64C202.298 39.0267 201.578 39.22 200.778 39.22ZM201.698 36.94C202.391 36.94 202.951 36.6933 203.378 36.2C203.804 35.7067 204.018 34.9467 204.018 33.92C204.018 32.8933 203.804 32.14 203.378 31.66C202.951 31.18 202.391 30.94 201.698 30.94C201.004 30.94 200.444 31.18 200.018 31.66C199.591 32.14 199.378 32.8933 199.378 33.92C199.378 34.9467 199.584 35.7067 199.998 36.2C200.424 36.6933 200.991 36.94 201.698 36.94ZM209.454 39V31.54C209.454 31.1 209.441 30.6533 209.414 30.2C209.401 29.7467 209.368 29.3 209.314 28.86H212.214L212.554 31.82H212.094C212.228 31.1 212.441 30.5067 212.734 30.04C213.041 29.5733 213.414 29.2267 213.854 29C214.308 28.7733 214.821 28.66 215.394 28.66C215.648 28.66 215.848 28.6733 215.994 28.7C216.141 28.7133 216.288 28.7467 216.434 28.8L216.414 31.46C216.134 31.34 215.894 31.2667 215.694 31.24C215.508 31.2 215.268 31.18 214.974 31.18C214.414 31.18 213.948 31.2867 213.574 31.5C213.214 31.7133 212.941 32.0267 212.754 32.44C212.581 32.8533 212.494 33.3533 212.494 33.94V39H209.454ZM221.539 39.22C220.659 39.22 219.886 39.0067 219.219 38.58C218.553 38.1533 218.033 37.5467 217.659 36.76C217.286 35.9733 217.099 35.0267 217.099 33.92C217.099 32.8267 217.286 31.8867 217.659 31.1C218.033 30.3133 218.553 29.7133 219.219 29.3C219.886 28.8733 220.659 28.66 221.539 28.66C222.353 28.66 223.079 28.86 223.719 29.26C224.373 29.6467 224.799 30.1733 224.999 30.84H224.779L225.019 28.86H227.919C227.879 29.3 227.839 29.7467 227.799 30.2C227.773 30.64 227.759 31.0733 227.759 31.5V39H224.759L224.739 37.1H224.979C224.766 37.74 224.339 38.2533 223.699 38.64C223.059 39.0267 222.339 39.22 221.539 39.22ZM222.459 36.94C223.153 36.94 223.713 36.6933 224.139 36.2C224.566 35.7067 224.779 34.9467 224.779 33.92C224.779 32.8933 224.566 32.14 224.139 31.66C223.713 31.18 223.153 30.94 222.459 30.94C221.766 30.94 221.206 31.18 220.779 31.66C220.353 32.14 220.139 32.8933 220.139 33.92C220.139 34.9467 220.346 35.7067 220.759 36.2C221.186 36.6933 221.753 36.94 222.459 36.94ZM230.236 39V31.5C230.236 31.0733 230.223 30.64 230.196 30.2C230.17 29.7467 230.13 29.3 230.076 28.86H232.976L233.196 30.74H232.956C233.29 30.0733 233.763 29.56 234.376 29.2C234.99 28.84 235.703 28.66 236.516 28.66C237.703 28.66 238.59 29.0067 239.176 29.7C239.776 30.38 240.076 31.44 240.076 32.88V39H237.056V33.02C237.056 32.2867 236.923 31.7667 236.656 31.46C236.39 31.1533 235.99 31 235.456 31C234.79 31 234.256 31.2133 233.856 31.64C233.456 32.0533 233.256 32.6133 233.256 33.32V39H230.236ZM247.322 43.48C246.349 43.48 245.482 43.38 244.722 43.18C243.962 42.9933 243.282 42.7067 242.682 42.32L243.262 40.16C243.635 40.4 244.029 40.5933 244.442 40.74C244.869 40.9 245.302 41.0133 245.742 41.08C246.195 41.16 246.642 41.2 247.082 41.2C247.975 41.2 248.642 40.9867 249.082 40.56C249.522 40.1333 249.742 39.5267 249.742 38.74V36.64H249.942C249.729 37.28 249.302 37.7933 248.662 38.18C248.022 38.5667 247.302 38.76 246.502 38.76C245.595 38.76 244.802 38.5533 244.122 38.14C243.455 37.7267 242.935 37.14 242.562 36.38C242.189 35.62 242.002 34.7267 242.002 33.7C242.002 32.6733 242.189 31.78 242.562 31.02C242.935 30.26 243.455 29.68 244.122 29.28C244.802 28.8667 245.595 28.66 246.502 28.66C247.315 28.66 248.029 28.8533 248.642 29.24C249.269 29.6133 249.689 30.1133 249.902 30.74L249.742 30.66L249.942 28.86H252.862C252.809 29.3 252.769 29.7467 252.742 30.2C252.715 30.64 252.702 31.0733 252.702 31.5V38.4C252.702 40.04 252.242 41.2933 251.322 42.16C250.402 43.04 249.069 43.48 247.322 43.48ZM247.402 36.48C248.109 36.48 248.669 36.24 249.082 35.76C249.495 35.28 249.702 34.5933 249.702 33.7C249.702 32.8067 249.495 32.1267 249.082 31.66C248.669 31.18 248.109 30.94 247.402 30.94C246.669 30.94 246.089 31.18 245.662 31.66C245.249 32.1267 245.042 32.8067 245.042 33.7C245.042 34.5933 245.249 35.28 245.662 35.76C246.089 36.24 246.669 36.48 247.402 36.48Z" fill="white"></path><path d="M260.905 33.7154C260.531 33.5164 260.218 33.2195 260 32.8563C259.781 32.4931 259.666 32.0774 259.666 31.6537C259.666 31.2301 259.781 30.8144 260 30.4512C260.218 30.088 260.531 29.7911 260.905 29.5921L270.883 24.1659C272.49 23.2921 274.464 24.4292 274.464 26.2267L274.464 37.08C274.464 38.8791 272.49 40.0154 270.883 39.1423L260.905 33.7154Z" fill="url(#paint2_linear_62_3)" fill-opacity="0.63"></path><defs><linearGradient id="paint0_linear_62_3" x1="3.81606" y1="31.1538" x2="331.997" y2="31.1538" gradientUnits="userSpaceOnUse"><stop stop-color="#BE48FB"></stop><stop offset="0.505208" stop-color="#CE6FFF"></stop><stop offset="1" stop-color="#BE48FB"></stop></linearGradient><linearGradient id="paint1_linear_62_3" x1="68.8113" y1="31.5877" x2="52.574" y2="31.5877" gradientUnits="userSpaceOnUse"><stop stop-color="white"></stop><stop offset="1" stop-color="white" stop-opacity="0"></stop></linearGradient><linearGradient id="paint2_linear_62_3" x1="259.652" y1="31.8547" x2="275.89" y2="31.8547" gradientUnits="userSpaceOnUse"><stop stop-color="white"></stop><stop offset="1" stop-color="white" stop-opacity="0"></stop></linearGradient></defs></svg>