<svg xmlns="http://www.w3.org/2000/svg" width="91" height="20" viewBox="0 0 91 20" fill="none"><path d="M1.36487 16V4.72H3.42887V14.256H8.74088V16H1.36487ZM13.1806 10.352C13.1806 9.168 13.394 8.144 13.8206 7.28C14.258 6.416 14.882 5.74933 15.6926 5.28C16.5033 4.8 17.4686 4.56 18.5886 4.56C19.698 4.56 20.658 4.8 21.4686 5.28C22.2793 5.74933 22.9033 6.416 23.3406 7.28C23.7886 8.144 24.0126 9.16267 24.0126 10.336C24.0126 11.52 23.7886 12.5493 23.3406 13.424C22.9033 14.288 22.2793 14.96 21.4686 15.44C20.658 15.92 19.698 16.16 18.5886 16.16C17.4686 16.16 16.5033 15.92 15.6926 15.44C14.8926 14.96 14.274 14.288 13.8366 13.424C13.3993 12.5493 13.1806 11.5253 13.1806 10.352ZM15.3406 10.352C15.3406 11.6213 15.6126 12.6133 16.1566 13.328C16.7006 14.0427 17.5113 14.4 18.5886 14.4C19.634 14.4 20.4393 14.0427 21.0046 13.328C21.57 12.6133 21.8526 11.6213 21.8526 10.352C21.8526 9.072 21.57 8.08 21.0046 7.376C20.45 6.672 19.6446 6.32 18.5886 6.32C17.5113 6.32 16.7006 6.672 16.1566 7.376C15.6126 8.08 15.3406 9.072 15.3406 10.352ZM35.4224 16.16C34.153 16.16 33.0864 15.9253 32.2224 15.456C31.3584 14.9867 30.7077 14.32 30.2704 13.456C29.833 12.592 29.6144 11.568 29.6144 10.384C29.6144 9.18933 29.849 8.16 30.3184 7.296C30.7877 6.42133 31.4597 5.74933 32.3344 5.28C33.2197 4.8 34.281 4.56 35.5184 4.56C36.3397 4.56 37.0597 4.672 37.6784 4.896C38.297 5.10933 38.841 5.424 39.3104 5.84L38.6224 7.44C38.281 7.17333 37.9557 6.96 37.6464 6.8C37.337 6.64 37.017 6.528 36.6864 6.464C36.3557 6.38933 35.9717 6.352 35.5344 6.352C34.297 6.352 33.3584 6.704 32.7184 7.408C32.089 8.10133 31.7744 9.09867 31.7744 10.4C31.7744 11.7013 32.073 12.6933 32.6704 13.376C33.2784 14.0587 34.2277 14.4 35.5184 14.4C35.9557 14.4 36.393 14.3573 36.8304 14.272C37.2784 14.1867 37.7157 14.064 38.1424 13.904L37.7584 14.768V11.392H35.1184V9.888H39.4704V15.312C38.9477 15.5787 38.3237 15.7867 37.5984 15.936C36.873 16.0853 36.1477 16.16 35.4224 16.16ZM45.6661 16V4.72H47.7301V16H45.6661ZM54.053 16V4.72H55.605L62.149 13.184H61.733V4.72H63.653V16H62.101L55.573 7.536H55.973V16H54.053Z" fill="white"></path><path d="M0.116875 17.712H64.885V18.416H0.116875V17.712Z" fill="white"></path><path d="M77.5 14.5L87.25 4.75M87.25 4.75L77.89 4.75M87.25 4.75L87.25 14.11" stroke="white" stroke-width="1.5" stroke-linecap="round" stroke-linejoin="round"></path></svg>